<svg width="720" height="520" viewBox="0 0 720 520" fill="none" xmlns="http://www.w3.org/2000/svg">
  <rect width="720" height="520" rx="32" fill="#0F172A" />
  <rect x="48" y="64" width="624" height="392" rx="24" fill="url(#gradient)" opacity="0.9" />
  <rect x="96" y="128" width="240" height="184" rx="18" fill="rgba(15,23,42,0.9)" stroke="#38BDF8" stroke-dasharray="6 12" />
  <rect x="360" y="128" width="264" height="76" rx="14" fill="rgba(15,23,42,0.9)" stroke="#38BDF8" />
  <rect x="360" y="232" width="264" height="128" rx="18" fill="rgba(15,23,42,0.9)" stroke="rgba(148,163,184,0.4)" />
  <circle cx="216" cy="352" r="68" fill="#38BDF8" opacity="0.25" />
  <circle cx="216" cy="352" r="52" stroke="#38BDF8" stroke-width="4" stroke-dasharray="4 8" opacity="0.6" />
  <path d="M196 352L210 366L236 332" stroke="#22C55E" stroke-width="6" stroke-linecap="round" stroke-linejoin="round" />
  <g opacity="0.8">
    <circle cx="396" cy="168" r="12" fill="#38BDF8" />
    <circle cx="432" cy="168" r="12" fill="#38BDF8" opacity="0.8" />
    <circle cx="468" cy="168" r="12" fill="#38BDF8" opacity="0.6" />
    <rect x="396" y="200" width="180" height="12" rx="6" fill="#94A3B8" opacity="0.6" />
  </g>
  <g opacity="0.65">
    <rect x="384" y="260" width="208" height="18" rx="9" fill="#38BDF8" opacity="0.8" />
    <rect x="384" y="296" width="180" height="18" rx="9" fill="#38BDF8" opacity="0.6" />
    <rect x="384" y="332" width="152" height="18" rx="9" fill="#38BDF8" opacity="0.45" />
  </g>
  <defs>
    <linearGradient id="gradient" x1="48" y1="64" x2="624" y2="456" gradientUnits="userSpaceOnUse">
      <stop stop-color="#1D4ED8" stop-opacity="0.65" />
      <stop offset="1" stop-color="#38BDF8" stop-opacity="0.3" />
    </linearGradient>
  </defs>
</svg>
